<?xml version="1.0" encoding="UTF-8"?>
<!DOCTYPE svg PUBLIC "-//W3C//DTD SVG 1.1//EN" "http://www.w3.org/Graphics/SVG/1.1/DTD/svg11.dtd">
<!-- Creator: CorelDRAW X8 -->
<svg xmlns="http://www.w3.org/2000/svg" xml:space="preserve" width="4.13386in" height="3.69666in" version="1.1" style="shape-rendering:geometricPrecision; text-rendering:geometricPrecision; image-rendering:optimizeQuality; fill-rule:evenodd; clip-rule:evenodd"
viewBox="0 0 4134 3697"
 xmlns:xlink="http://www.w3.org/1999/xlink">
 <defs>
  <style type="text/css">
   <![CDATA[
    .fil8 {fill:#FEFEFE;fill-rule:nonzero}
    .fil4 {fill:#F9A639;fill-rule:nonzero}
    .fil57 {fill:#F47E51;fill-rule:nonzero}
    .fil6 {fill:#F8BD30;fill-rule:nonzero}
    .fil19 {fill:#F1F3F4;fill-rule:nonzero}
    .fil3 {fill:#E64742;fill-rule:nonzero}
    .fil58 {fill:#F7E851;fill-rule:nonzero}
    .fil51 {fill:#EAD9B6;fill-rule:nonzero}
    .fil23 {fill:#EBBD5B;fill-rule:nonzero}
    .fil45 {fill:#EBBB5B;fill-rule:nonzero}
    .fil13 {fill:#DC4D4E;fill-rule:nonzero}
    .fil55 {fill:#EEEB6E;fill-rule:nonzero}
    .fil44 {fill:#E8BA5B;fill-rule:nonzero}
    .fil43 {fill:#E8BA59;fill-rule:nonzero}
    .fil42 {fill:#E8B959;fill-rule:nonzero}
    .fil41 {fill:#E6B859;fill-rule:nonzero}
    .fil40 {fill:#E5B659;fill-rule:nonzero}
    .fil50 {fill:#E0E2E0;fill-rule:nonzero}
    .fil39 {fill:#E4B557;fill-rule:nonzero}
    .fil38 {fill:#E4B357;fill-rule:nonzero}
    .fil10 {fill:#D54A49;fill-rule:nonzero}
    .fil1 {fill:#DDDDDC;fill-rule:nonzero}
    .fil37 {fill:#E1B157;fill-rule:nonzero}
    .fil48 {fill:#D54F60;fill-rule:nonzero}
    .fil53 {fill:#DCDBD9;fill-rule:nonzero}
    .fil56 {fill:#DEBA90;fill-rule:nonzero}
    .fil36 {fill:#E0B156;fill-rule:nonzero}
    .fil35 {fill:#DFAF55;fill-rule:nonzero}
    .fil47 {fill:#DFAB53;fill-rule:nonzero}
    .fil34 {fill:#DDAD53;fill-rule:nonzero}
    .fil33 {fill:#DBAC54;fill-rule:nonzero}
    .fil32 {fill:#D9AA52;fill-rule:nonzero}
    .fil31 {fill:#D9A850;fill-rule:nonzero}
    .fil12 {fill:#C74642;fill-rule:nonzero}
    .fil30 {fill:#D3A44F;fill-rule:nonzero}
    .fil49 {fill:#C94C5D;fill-rule:nonzero}
    .fil29 {fill:#D1A24D;fill-rule:nonzero}
    .fil28 {fill:#D09F4C;fill-rule:nonzero}
    .fil27 {fill:#CC9C48;fill-rule:nonzero}
    .fil2 {fill:#B73739;fill-rule:nonzero}
    .fil26 {fill:#C99A47;fill-rule:nonzero}
    .fil25 {fill:#C69544;fill-rule:nonzero}
    .fil0 {fill:#C2DAD7;fill-rule:nonzero}
    .fil24 {fill:#B4465B;fill-rule:nonzero}
    .fil15 {fill:#A6BEE3;fill-rule:nonzero}
    .fil21 {fill:#926248;fill-rule:nonzero}
    .fil17 {fill:#95764B;fill-rule:nonzero}
    .fil16 {fill:#7E6240;fill-rule:nonzero}
    .fil14 {fill:#8AA6C1;fill-rule:nonzero}
    .fil18 {fill:#727272;fill-rule:nonzero}
    .fil20 {fill:#70706F;fill-rule:nonzero}
    .fil46 {fill:#5F605F;fill-rule:nonzero}
    .fil9 {fill:#5D5F5E;fill-rule:nonzero}
    .fil11 {fill:#4E4F4F;fill-rule:nonzero}
    .fil54 {fill:#4D4E4E;fill-rule:nonzero}
    .fil5 {fill:#4C4D4D;fill-rule:nonzero}
    .fil22 {fill:#59984E;fill-rule:nonzero}
    .fil52 {fill:#282828;fill-rule:nonzero}
    .fil7 {fill:#23988C;fill-rule:nonzero}
   ]]>
  </style>
 </defs>
 <g id="Layer_x0020_1">
  <metadata id="CorelCorpID_0Corel-Layer"/>
  <g id="_1559205649264">
   <path class="fil0" d="M3519 2341c-377,-568 201,-511 229,-1031 40,-770 -698,-402 -1083,-303 -332,86 -626,79 -929,-99 -231,-136 -388,-402 -664,-448 -692,-116 -805,646 -558,1087 139,250 288,294 219,605 -61,277 -423,413 -387,771 87,866 974,837 1727,625 433,-123 721,37 1143,119 219,42 425,64 590,-111 393,-416 -66,-883 -287,-1215z"/>
   <path class="fil1" d="M3720 1902c-6,-24 -30,-37 -53,-31 -24,6 -37,30 -31,53l30 111 83 -23 -29 -110z"/>
   <path class="fil2" d="M3762 2152c-16,0 -33,0 -50,2 -122,12 -235,65 -323,153 -100,100 -155,233 -155,374l0 170 155 0 0 -170c0,-206 168,-374 374,-375l9 0 0 -154 -10 0z"/>
   <path class="fil3" d="M3764 2003c-8,-32 -41,-51 -73,-42 -32,9 -51,41 -43,73l26 95 116 -31 -26 -95z"/>
   <path class="fil3" d="M3389 2307c-100,100 -155,233 -155,374l0 111 95 0 0 -171c0,-205 168,-374 374,-375 3,0 6,0 9,0l0 -92c-122,12 -235,65 -323,153z"/>
   <path class="fil4" d="M3392 2552l-131 0c-35,0 -64,29 -64,64l0 283 260 0 0 -283c0,-35 -29,-64 -65,-64z"/>
   <path class="fil5" d="M3827 2082c-15,-54 -69,-85 -123,-71 -53,14 -85,69 -71,122l83 308 193 -52 -82 -307z"/>
   <polygon class="fil1" points="3961,2371 3662,2451 3679,2515 3979,2435 "/>
   <polygon class="fil6" points="3976,2424 3650,2512 3656,2533 3982,2446 "/>
   <path class="fil7" d="M3712 2694c-8,-5 -18,-2 -23,5l-53 87 -179 0c0,0 0,16 0,33l188 0c6,0 11,-3 14,-8l58 -95c5,-7 2,-17 -5,-22z"/>
   <path class="fil2" d="M3823 2683l-366 0 0 50 366 0c14,0 25,-11 25,-25 0,-14 -11,-25 -25,-25z"/>
   <path class="fil8" d="M3327 2681c-17,0 -30,13 -30,30 0,16 13,29 30,29 16,0 29,-13 29,-29 0,-17 -13,-30 -29,-30z"/>
   <path class="fil5" d="M3327 2692c-11,0 -19,8 -19,19 0,10 8,18 19,18 10,0 19,-8 19,-18 0,-11 -9,-19 -19,-19z"/>
   <path class="fil8" d="M3758 2183c-16,0 -29,13 -29,30 0,16 13,29 29,29 17,0 30,-13 30,-29 0,-17 -13,-30 -30,-30z"/>
   <path class="fil5" d="M3758 2194c-10,0 -18,8 -18,19 0,10 8,19 18,19 11,0 19,-9 19,-19 0,-11 -8,-19 -19,-19z"/>
   <path class="fil7" d="M3928 2899l-731 0 0 105 805 0 0 -31c0,-41 -33,-74 -74,-74z"/>
   <path class="fil5" d="M4006 3004l-809 0 0 47 809 0c13,0 24,-10 24,-23 0,-14 -11,-24 -24,-24z"/>
   <polygon class="fil9" points="1940,1257 1801,1219 1820,1325 1898,1335 1943,1297 "/>
   <polygon class="fil9" points="142,1379 104,1409 108,1449 161,1454 161,1383 "/>
   <path class="fil10" d="M967 1181c0,-8 -7,-14 -16,-13l-606 50c-8,1 -14,8 -13,16 0,8 8,14 16,13l606 -50c8,-1 14,-8 13,-16z"/>
   <path class="fil9" d="M1899 1207l-711 -201c-128,-36 -264,-25 -383,32l-669 316c-47,22 -41,91 9,105l889 252c13,3 27,2 39,-4l835 -394c47,-23 41,-92 -9,-106z"/>
   <path class="fil11" d="M1902 1247l-711 -201c-127,-36 -263,-25 -383,32l-668 316c-47,22 -42,91 9,105l888 252c13,4 27,2 39,-3l835 -395c47,-22 42,-91 -9,-106z"/>
   <path class="fil11" d="M1447 1369l0 0c-265,98 -561,123 -838,70l0 0 27 324 0 0c279,37 569,13 838,-70l0 0 -27 -324z"/>
   <path class="fil9" d="M1447 1369l0 0c-279,-37 -569,-12 -838,70l0 0 27 324 0 0c264,-98 561,-123 838,-70l0 0 -27 -324z"/>
   <path class="fil10" d="M1468 1617c-278,-53 -574,-28 -838,70l2 27c264,-98 561,-123 838,-70l-2 -27z"/>
   <path class="fil10" d="M411 1838l-50 -607c-1,-8 -8,-14 -16,-13 -8,1 -14,8 -13,16l50 606c1,8 8,14 16,14 8,-1 14,-8 13,-16z"/>
   <path class="fil10" d="M457 1849c-3,-33 -31,-58 -64,-55 -33,3 -57,32 -55,64 3,33 32,57 65,55 32,-3 57,-32 54,-64z"/>
   <path class="fil12" d="M826 1765c-45,-49 -102,-49 -147,0l0 1273 147 0 0 -1273z"/>
   <path class="fil12" d="M487 1961c-28,29 -44,70 -44,112l0 1154c0,20 21,30 35,17l201 -206 0 -1273 -192 196z"/>
   <path class="fil8" d="M701 1801l-188 192c-23,23 -36,56 -36,90l0 1103c0,12 14,19 23,11l201 -190 0 31 97 0 0 -1237c-27,-43 -97,0 -97,0z"/>
   <path class="fil13" d="M633 1961c-28,29 -44,70 -44,112l0 1154c0,20 22,30 35,17l202 -206 0 -1273 -193 196z"/>
   <path class="fil8" d="M548 2925l-56 0 -13 258c-1,15 14,25 25,17l0 0c18,-12 40,-12 58,0l27 18 0 -103 -41 -190z"/>
   <path class="fil14" d="M908 1708l0 1273 146 0 0 -1273c-45,-49 -102,-49 -146,0z"/>
   <path class="fil14" d="M715 1904c-28,29 -44,69 -44,111l0 1154c0,20 22,31 35,17l202 -205 0 -1273 -193 196z"/>
   <path class="fil8" d="M930 1743l-189 193c-23,23 -35,55 -35,89l0 1103c0,13 13,20 22,12l202 -191 0 32 96 0 0 -1238c-26,-43 -96,0 -96,0z"/>
   <path class="fil15" d="M862 1904c-28,29 -44,69 -44,111l0 1154c0,20 21,31 35,17l201 -205 0 -1273 -192 196z"/>
   <path class="fil8" d="M776 2868l-56 0 -13 258c0,15 14,24 26,16 17,-12 40,-12 58,0l27 19 0 -103 -42 -190z"/>
   <path class="fil16" d="M1099 1729l0 1273 146 0 0 -1273c-44,-49 -102,-49 -146,0z"/>
   <path class="fil16" d="M907 1926c-28,28 -44,69 -44,111l0 1154c0,20 21,30 35,17l201 -206 0 -1273 -192 197z"/>
   <path class="fil8" d="M1121 1765l-188 192c-23,24 -36,56 -36,90l0 1103c0,13 14,19 23,11l201 -190 0 31 97 0 0 -1237c-27,-43 -97,0 -97,0z"/>
   <path class="fil17" d="M1053 1926c-28,28 -44,69 -44,111l0 1154c0,20 22,30 35,17l201 -206 0 -1273 -192 197z"/>
   <path class="fil8" d="M967 2889l-55 0 -13 259c-1,14 14,24 25,16 18,-12 40,-12 58,0l27 19 0 -104 -42 -190z"/>
   <polygon class="fil18" points="3174,3061 1269,3061 1103,3400 3339,3400 "/>
   <polygon class="fil5" points="1103,3466 3339,3466 3339,3400 1103,3400 "/>
   <polygon class="fil19" points="3128,3098 1315,3098 1179,3362 3264,3362 "/>
   <polygon class="fil18" points="2758,3098 2627,3098 2701,3362 2838,3362 "/>
   <path class="fil11" d="M3346 1276l-2115 0c-40,0 -73,33 -73,74l0 1258c0,40 33,73 73,73l2115 0c40,0 73,-33 73,-73l0 -1258c0,-41 -33,-74 -73,-74z"/>
   <path class="fil19" d="M3309 1365l-2041 0c-16,0 -30,13 -30,30l0 1167c0,16 12,29 28,31l0 0c1,0 2,0 2,0l2041 0c17,0 30,-14 30,-31l0 -1167c0,-17 -13,-30 -30,-30z"/>
   <polygon class="fil20" points="2160,2771 2417,2771 2417,2681 2160,2681 "/>
   <path class="fil11" d="M2614 2810c-18,-24 -46,-39 -76,-39l-499 0c-30,0 -58,15 -75,39l-38 51 726 0 -38 -51z"/>
   <path class="fil21" d="M2466 447l-1188 0c-49,0 -89,40 -89,90l0 779c0,49 40,89 89,89l1188 0c50,0 90,-40 90,-89l0 -779c0,-50 -40,-90 -90,-90z"/>
   <path class="fil22" d="M2415 507l-1085 0c-45,0 -81,36 -81,81l0 677c0,44 36,80 81,80l1085 0c45,0 81,-36 81,-80l0 -677c0,-45 -36,-81 -81,-81z"/>
   <path class="fil8" d="M2493 1265c0,42 -35,77 -78,77l-1085 0c-43,0 -78,-35 -78,-77l0 -677c0,-43 35,-77 78,-77l1085 0c43,0 78,34 78,77l0 677zm-78 -761l-1085 0c-47,0 -84,38 -84,84l0 677c0,46 37,83 84,83l1085 0c46,0 84,-37 84,-83l0 -677c0,-46 -38,-84 -84,-84z"/>
   <path class="fil8" d="M1601 713c-1,-21 0,-42 -21,-51 -18,-8 -39,-5 -56,3 -45,23 -56,77 -53,123 1,22 8,36 26,49 24,17 50,30 77,41 8,3 11,-10 4,-13 -31,-12 -89,-33 -94,-71 -3,-34 1,-76 26,-102 12,-12 28,-21 46,-22 31,0 32,25 32,50 0,7 2,27 -2,33 -6,8 -23,3 -31,3 -21,-1 -41,-2 -62,-3 -9,-1 -9,12 0,13 18,1 36,2 54,2 12,1 32,6 43,0 16,-8 11,-41 11,-55z"/>
   <path class="fil8" d="M1779 735l-101 0c-9,0 -9,14 0,14l101 0c8,0 8,-14 0,-14z"/>
   <path class="fil8" d="M1782 786l-81 0c-8,0 -8,13 0,13l81 0c8,0 8,-13 0,-13z"/>
   <path class="fil8" d="M1992 756c-14,-2 -22,3 -28,11 -5,-11 -13,-18 -29,-16 -15,1 -26,9 -33,21 0,-17 0,-34 0,-51 0,-8 -13,-8 -13,0 0,33 0,65 0,98 -1,11 -1,21 0,30 0,8 13,8 13,0 0,-13 0,-26 0,-38 2,-20 9,-38 28,-45 24,-9 24,13 24,30 0,15 0,29 0,44 0,8 13,8 13,0 0,-2 1,-3 1,-5 0,-12 2,-31 1,-48 2,-7 6,-13 13,-16 38,-14 37,43 34,64 -2,8 11,12 12,4 5,-30 5,-80 -36,-83z"/>
   <path class="fil8" d="M2164 743c-6,-28 -20,-67 -56,-64 -31,3 -48,39 -51,67 -4,31 5,72 30,94 22,19 54,12 67,-14 4,-8 -7,-14 -11,-7 -6,12 -17,20 -30,19 -15,-1 -25,-14 -31,-26 -10,-19 -14,-40 -13,-61 2,-21 12,-52 36,-58 31,-8 42,32 46,54 2,8 14,5 13,-4z"/>
   <path class="fil8" d="M2268 718c-6,0 -13,0 -19,-1 16,-14 25,-35 11,-56 -15,-23 -54,-18 -58,11 -2,8 11,12 12,3 4,-22 33,-19 39,1 6,20 -11,35 -29,41 -7,2 -6,12 2,12 14,1 28,2 42,2 8,0 8,-13 0,-13z"/>
   <path class="fil23" d="M3398 1972c-15,-22 -46,-27 -68,-12 -22,15 -27,46 -12,68 2,2 148,216 31,479 -11,24 1,53 25,64 7,3 13,4 20,4 18,0 36,-11 44,-29 139,-312 -33,-563 -40,-574z"/>
   <polygon class="fil24" points="2831,1585 2832,1680 3143,1680 3144,1585 "/>
   <path class="fil23" d="M2640 1623c-1,-1 -117,-103 -235,-204 -247,-212 -265,-218 -279,-222 -26,-7 -53,8 -60,33 -7,25 5,50 28,59 38,22 275,225 482,407 9,8 20,12 32,12 13,0 27,-6 36,-17 18,-20 16,-51 -4,-68z"/>
   <polygon class="fil25" points="2940,1382 3036,1382 2988,1317 "/>
   <polygon class="fil25" points="2933,1390 3042,1390 3036,1382 2940,1382 "/>
   <polygon class="fil26" points="2927,1398 3048,1398 3042,1390 2933,1390 "/>
   <polygon class="fil27" points="2921,1407 3054,1407 3048,1398 2927,1398 "/>
   <polygon class="fil28" points="2915,1415 3060,1415 3054,1407 2921,1407 "/>
   <polygon class="fil29" points="2909,1423 3067,1423 3060,1415 2915,1415 "/>
   <polygon class="fil30" points="2902,1432 3073,1432 3067,1423 2909,1423 "/>
   <polygon class="fil31" points="2896,1440 3079,1440 3073,1432 2902,1432 "/>
   <polygon class="fil32" points="2890,1448 3085,1448 3079,1440 2896,1440 "/>
   <polygon class="fil33" points="2888,1457 3087,1457 3087,1451 3085,1448 2890,1448 2888,1451 "/>
   <polygon class="fil34" points="2888,1465 3087,1465 3087,1457 2888,1457 "/>
   <polygon class="fil35" points="2888,1473 3087,1473 3087,1465 2888,1465 "/>
   <polygon class="fil36" points="2888,1482 3087,1482 3087,1473 2888,1473 "/>
   <polygon class="fil37" points="2888,1490 3087,1490 3087,1482 2888,1482 "/>
   <polygon class="fil38" points="2888,1498 3087,1498 3087,1490 2888,1490 "/>
   <polygon class="fil39" points="2888,1507 3087,1507 3087,1498 2888,1498 "/>
   <polygon class="fil39" points="2888,1515 3087,1515 3087,1507 2888,1507 "/>
   <polygon class="fil40" points="2888,1523 3087,1523 3087,1515 2888,1515 "/>
   <polygon class="fil41" points="2888,1532 3087,1532 3087,1523 2888,1523 "/>
   <polygon class="fil42" points="2888,1540 3087,1540 3087,1532 2888,1532 "/>
   <polygon class="fil43" points="2888,1548 3087,1548 3087,1540 2888,1540 "/>
   <polygon class="fil44" points="2888,1557 3087,1557 3087,1548 2888,1548 "/>
   <polygon class="fil44" points="2888,1565 3087,1565 3087,1557 2888,1557 "/>
   <polygon class="fil43" points="2888,1573 3087,1573 3087,1565 2888,1565 "/>
   <polygon class="fil44" points="2888,1582 3087,1582 3087,1573 2888,1573 "/>
   <polygon class="fil45" points="2888,1590 3087,1590 3087,1582 2888,1582 "/>
   <polygon class="fil23" points="2888,1598 3087,1598 3087,1590 2888,1590 "/>
   <polygon class="fil23" points="2888,1607 3087,1607 3087,1598 2888,1598 "/>
   <polygon class="fil23" points="2888,1615 3087,1615 3087,1607 2888,1607 "/>
   <polygon class="fil23" points="2888,1623 3087,1623 3087,1615 2888,1615 "/>
   <polygon class="fil23" points="2888,1632 3087,1632 3087,1623 2888,1623 "/>
   <polygon class="fil23" points="2888,1640 3087,1640 3087,1632 2888,1632 "/>
   <polygon class="fil23" points="2888,1648 3087,1648 3087,1640 2888,1640 "/>
   <polygon class="fil23" points="2888,1657 3087,1657 3087,1648 2888,1648 "/>
   <polygon class="fil23" points="2888,1665 3087,1665 3087,1657 2888,1657 "/>
   <polygon class="fil23" points="2888,1673 3087,1673 3087,1665 2888,1665 "/>
   <polygon class="fil23" points="2888,1682 3087,1682 3087,1673 2888,1673 "/>
   <polygon class="fil23" points="2888,1690 3087,1690 3087,1682 2888,1682 2888,1690 "/>
   <path class="fil23" d="M2889 1698l198 0c0,-2 0,-5 0,-7l0 -1 -199 0c0,3 0,6 1,8z"/>
   <path class="fil23" d="M2890 1707l196 0c0,-3 0,-6 1,-9l-198 0c0,3 0,6 1,9z"/>
   <path class="fil23" d="M2891 1715l193 0c1,-3 1,-5 2,-8l-196 0c0,3 1,5 1,8z"/>
   <path class="fil23" d="M2893 1723l189 0c1,-2 1,-5 2,-8l-193 0c1,3 2,6 2,8z"/>
   <path class="fil23" d="M3082 1723l-189 0c14,45 51,87 95,87 43,0 81,-42 94,-87z"/>
   <path class="fil46" d="M3381 1103l-3 -148c-4,-218 -184,-359 -401,-355l0 0c-217,5 -390,154 -386,371l4 148c4,217 184,390 401,385l0 0c217,-4 390,-184 385,-401z"/>
   <path class="fil46" d="M2674 1154c-5,-121 -7,-346 -51,-346 -78,-2 -69,223 -64,344 6,121 38,222 81,223 25,1 40,-100 34,-221z"/>
   <path class="fil46" d="M3350 803c-44,1 -43,226 -47,347 -4,121 13,221 37,220 44,-1 74,-103 78,-224 4,-121 10,-346 -68,-343z"/>
   <path class="fil46" d="M3363 983c-4,-170 -145,-305 -315,-302l-139 3c-170,4 -305,144 -301,314l7 326c0,30 26,55 56,54l644 -13c31,-1 55,-26 54,-57l-6 -325z"/>
   <path class="fil23" d="M2628 1096c-59,2 -105,51 -103,110 2,59 51,105 110,103l-7 -213z"/>
   <path class="fil47" d="M2630 1171c-17,1 -31,15 -30,33 0,17 15,31 32,31l-2 -64z"/>
   <path class="fil23" d="M2633 1254c-23,1 -42,20 -41,43 1,23 20,42 43,41 24,-1 42,-20 41,-43 -1,-23 -20,-42 -43,-41z"/>
   <path class="fil23" d="M3347 1078l5 213c59,-1 105,-50 104,-108 -1,-59 -50,-106 -109,-105z"/>
   <path class="fil47" d="M3349 1153l1 63c18,0 32,-14 31,-32 0,-17 -15,-31 -32,-31z"/>
   <path class="fil23" d="M3351 1236c-24,0 -42,20 -41,43 0,23 19,41 42,41 24,-1 42,-20 41,-43 0,-23 -19,-42 -42,-41z"/>
   <path class="fil23" d="M3358 1247l-4 -202c-4,-203 -172,-363 -374,-359l0 0c-203,4 -363,171 -359,374l4 202c4,202 172,363 374,359l0 0c202,-5 363,-172 359,-374z"/>
   <path class="fil46" d="M2676 846c-15,-1 -63,56 -66,113 -4,58 -3,137 12,138 15,1 49,-52 57,-113 9,-65 12,-137 -3,-138z"/>
   <path class="fil46" d="M3358 940c-8,-56 -61,-109 -76,-106 -15,2 -6,73 9,137 14,60 52,110 67,107 15,-2 9,-81 0,-138z"/>
   <path class="fil46" d="M3282 751l-116 -82 -237 -23 -227 92 -26 108c0,0 304,133 606,-12l0 -83z"/>
   <path class="fil48" d="M2905 1741l-17 -11 -61 -31 -2 -1 -9 -7c0,0 0,0 0,0 -25,18 -184,-79 -248,-138 -13,-12 -25,-25 -38,-37l-100 115c13,16 23,34 39,46 99,77 155,128 236,185 -1,96 12,731 12,731l271 0 0 -794 -83 -58z"/>
   <path class="fil48" d="M3281 1912c-1,-31 -8,-62 -20,-90 -14,-37 -36,-70 -63,-98 -12,-12 -25,-23 -39,-33l-10 8 -6 4 -56 27 -12 8 -87 61 0 794 294 0 0 -663c0,-6 0,-12 -1,-18z"/>
   <polygon class="fil24" points="3064,1695 2988,1799 3143,1691 3144,1585 "/>
   <polygon class="fil24" points="2911,1695 2831,1585 2832,1691 2988,1799 "/>
   <path class="fil24" d="M3093 1968l0 107c0,12 10,22 23,22l87 0c13,0 23,-10 23,-22l0 -107 -133 0z"/>
   <polygon class="fil49" points="3093,1968 3226,1968 3226,1941 3093,1941 "/>
   <polygon class="fil8" points="2738,1990 2902,1990 2902,1958 2738,1958 "/>
   <path class="fil49" d="M3144 1585l-80 110c0,0 48,67 48,94l47 -98 -15 -106z"/>
   <path class="fil49" d="M2831 1585l-15 106 48 98c0,-27 47,-94 47,-94l-80 -110z"/>
   <polygon class="fil11" points="2812,1967 2829,1967 2829,1949 2812,1949 "/>
   <polygon class="fil24" points="2988,1799 2985,1797 2985,2593 2990,2593 2990,1797 "/>
   <path class="fil49" d="M2988 1819c-9,0 -16,7 -16,15 0,8 7,15 16,15 8,0 15,-7 15,-15 0,-8 -7,-15 -15,-15z"/>
   <path class="fil49" d="M2988 2009c-9,0 -16,7 -16,15 0,9 7,15 16,15 8,0 15,-6 15,-15 0,-8 -7,-15 -15,-15z"/>
   <path class="fil49" d="M2988 2199c-9,0 -16,7 -16,15 0,9 7,16 16,16 8,0 15,-7 15,-16 0,-8 -7,-15 -15,-15z"/>
   <path class="fil49" d="M2988 2389c-9,0 -16,7 -16,15 0,9 7,16 16,16 8,0 15,-7 15,-16 0,-8 -7,-15 -15,-15z"/>
   <path class="fil49" d="M2988 2527c-9,0 -16,7 -16,15 0,9 7,16 16,16 8,0 15,-7 15,-16 0,-8 -7,-15 -15,-15z"/>
   <path class="fil11" d="M3193 1910c-2,0 -5,2 -5,4l0 27 10 0 0 -27c0,-2 -2,-4 -5,-4z"/>
   <path class="fil50" d="M3194 1916l-1 0c-1,0 -2,1 -2,2l0 40c0,1 1,2 2,2l1 0c1,0 2,-1 2,-2l0 -40c0,-1 -1,-2 -2,-2z"/>
   <path class="fil49" d="M2536 1508l-116 128c13,16 33,29 46,44l111 -138c-13,-12 -28,-21 -41,-34z"/>
   <polygon class="fil11" points="1990,786 2140,1406 2164,1400 "/>
   <path class="fil23" d="M2165 1217l-58 -58c-5,-4 -12,-4 -17,0 -5,5 -5,12 0,17l58 58c5,4 12,4 17,0 4,-5 4,-12 0,-17z"/>
   <path class="fil48" d="M3215 1742l-88 84c46,47 172,185 214,257l105 -61c-57,-100 -224,-273 -231,-280z"/>
   <path class="fil23" d="M3405 2423c-5,-4 -12,-4 -17,0l-58 58c-4,5 -4,12 0,17 5,4 12,4 17,0l58 -58c5,-5 5,-12 0,-17z"/>
   <path class="fil51" d="M2769 1046c-80,1 -144,67 -142,147 2,80 68,144 147,142 80,-2 144,-68 142,-148 -1,-79 -67,-143 -147,-141z"/>
   <path class="fil52" d="M2869 1284c-25,26 -58,41 -95,42 -36,1 -70,-13 -96,-38 -26,-25 -41,-59 -42,-95 -1,-36 13,-70 38,-97 25,-26 59,-40 95,-41 1,0 2,0 3,0 73,0 134,59 135,133 1,36 -13,70 -38,96zm-100 -247c-42,0 -80,17 -108,47 -29,29 -44,68 -43,109 1,42 17,80 47,108 29,28 67,43 106,43 2,0 3,0 4,0 41,-1 79,-17 107,-47 29,-30 44,-69 43,-110 -1,-84 -72,-152 -156,-150z"/>
   <path class="fil51" d="M3209 1036c-80,2 -143,68 -142,148 2,79 68,143 148,141 80,-1 143,-67 142,-147 -2,-80 -68,-144 -148,-142z"/>
   <path class="fil52" d="M3215 1316c-36,1 -71,-13 -97,-38 -26,-25 -41,-58 -41,-95 -2,-74 58,-136 132,-138 1,0 2,0 3,0 74,0 134,59 136,133 1,75 -58,137 -133,138zm-6 -289c-85,2 -152,72 -151,157 1,41 18,79 48,108 28,27 66,42 106,42 1,0 2,0 3,0 85,-1 152,-72 151,-156 -2,-85 -72,-153 -157,-151z"/>
   <path class="fil52" d="M2987 1129c-48,3 -78,51 -79,53l16 10c0,-1 26,-42 64,-45 24,-1 48,13 72,43l14 -12c-27,-34 -57,-51 -87,-49z"/>
   <path class="fil15" d="M1630 2266l-526 0c-13,0 -23,11 -23,24l0 710c0,13 10,24 23,24l526 0c13,0 24,-11 24,-24l0 -710c0,-13 -11,-24 -24,-24z"/>
   <path class="fil15" d="M2207 2266l-494 0c-13,0 -24,11 -24,24l0 710c0,13 11,24 24,24l494 0c13,0 23,-11 23,-24l0 -710c0,-13 -10,-24 -23,-24z"/>
   <polygon class="fil53" points="1617,2291 1125,2291 1125,2988 1654,2991 "/>
   <path class="fil19" d="M1643 2254l-481 0 0 697 492 0 0 -686c0,-6 -5,-11 -11,-11z"/>
   <polygon class="fil53" points="1125,2291 1125,2988 1162,2951 1162,2254 "/>
   <polygon class="fil53" points="1434,2951 1654,2991 1654,2951 "/>
   <polygon class="fil53" points="1673,2291 1656,2991 2165,2988 2165,2291 "/>
   <polygon class="fil19" points="1654,2969 2146,2969 2146,2272 1654,2272 "/>
   <polygon class="fil53" points="2146,2272 2146,2333 2165,2302 2165,2291 "/>
   <path class="fil48" d="M1679 2262l-14 0c-6,0 -11,5 -11,11l0 757c0,2 5,3 7,1l4 -2c4,-2 10,-2 13,0l4 2c3,2 7,1 7,-1l0 -757c0,-6 -5,-11 -10,-11z"/>
   <polygon class="fil11" points="1207,2335 1619,2335 1619,2331 1207,2331 "/>
   <polygon class="fil11" points="1207,2386 1619,2386 1619,2382 1207,2382 "/>
   <polygon class="fil11" points="1207,2437 1619,2437 1619,2433 1207,2433 "/>
   <polygon class="fil11" points="1207,2487 1619,2487 1619,2484 1207,2484 "/>
   <polygon class="fil11" points="1207,2538 1619,2538 1619,2535 1207,2535 "/>
   <polygon class="fil11" points="1207,2589 1619,2589 1619,2586 1207,2586 "/>
   <polygon class="fil11" points="1207,2640 1619,2640 1619,2636 1207,2636 "/>
   <polygon class="fil11" points="1717,2335 2106,2335 2106,2331 1717,2331 "/>
   <polygon class="fil11" points="1717,2386 2106,2386 2106,2382 1717,2382 "/>
   <polygon class="fil11" points="1717,2437 2106,2437 2106,2433 1717,2433 "/>
   <polygon class="fil11" points="1717,2487 2106,2487 2106,2484 1717,2484 "/>
   <polygon class="fil11" points="1717,2538 2106,2538 2106,2535 1717,2535 "/>
   <polygon class="fil11" points="1717,2589 2106,2589 2106,2586 1717,2586 "/>
   <polygon class="fil11" points="1717,2640 2106,2640 2106,2636 1717,2636 "/>
   <polygon class="fil11" points="1717,2691 2106,2691 2106,2687 1717,2687 "/>
   <polygon class="fil11" points="1717,2742 2106,2742 2106,2738 1717,2738 "/>
   <polygon class="fil11" points="1717,2792 2106,2792 2106,2789 1717,2789 "/>
   <polygon class="fil11" points="1717,2843 2106,2843 2106,2840 1717,2840 "/>
   <polygon class="fil11" points="1717,2894 2106,2894 2106,2891 1717,2891 "/>
   <path class="fil54" d="M2472 2442l0 0c-20,-32 -63,-41 -95,-21l-36 22 73 117 36 -23c32,-20 42,-62 22,-95z"/>
   <polygon class="fil55" points="2341,2443 2298,2470 2371,2586 2414,2560 "/>
   <polygon class="fil4" points="2347,2548 1988,2771 2012,2810 2371,2586 "/>
   <polygon class="fil54" points="2322,2509 1964,2732 1988,2771 2347,2548 "/>
   <polygon class="fil4" points="2298,2470 1940,2693 1964,2732 2322,2509 "/>
   <path class="fil56" d="M1940 2693l-100 111 -49 55c-5,6 0,14 7,12l71 -20 143 -41 -72 -117z"/>
   <path class="fil54" d="M1840 2804l-49 55c-5,6 0,14 7,12l71 -20 -29 -47z"/>
   <polygon class="fil11" points="2175,1955 2346,1678 2335,1671 2152,1967 2604,1978 2604,1964 "/>
   <polygon class="fil11" points="2071,1594 2058,1598 2155,1955 1837,1998 1839,2011 2172,1967 "/>
   <polygon class="fil11" points="2169,1958 2157,1964 2253,2159 2265,2153 "/>
   <path class="fil4" d="M2229 1899c-35,-36 -92,-38 -128,-3 -36,34 -37,91 -3,127 35,36 92,38 128,3 36,-34 37,-91 3,-127z"/>
   <path class="fil2" d="M2669 1909c-34,-36 -91,-38 -128,-3 -36,34 -37,91 -2,128 34,36 91,37 127,2 36,-34 38,-91 3,-127z"/>
   <path class="fil4" d="M2105 1557c-21,-23 -57,-24 -80,-2 -22,21 -23,57 -2,80 22,23 58,23 81,2 22,-22 23,-58 1,-80z"/>
   <path class="fil22" d="M1879 1965c-22,-23 -57,-23 -80,-2 -23,22 -24,58 -2,80 22,23 58,24 80,2 23,-21 24,-57 2,-80z"/>
   <path class="fil7" d="M2367 1649c-14,-15 -37,-15 -52,-1 -15,14 -16,37 -1,52 14,15 37,16 52,2 15,-15 15,-38 1,-53z"/>
   <path class="fil15" d="M2286 2131c-15,-15 -38,-16 -53,-2 -15,15 -15,38 -1,53 14,15 37,15 52,1 15,-14 16,-37 2,-52z"/>
   <path class="fil10" d="M1291 2728c-109,0 -198,88 -198,197 0,109 89,198 198,198 109,0 198,-89 198,-198 0,-109 -89,-197 -198,-197z"/>
   <polygon class="fil10" points="1365,2949 1368,2943 1362,2941 1342,2891 1291,2911 1240,2891 1220,2941 1214,2943 1216,2949 1086,3267 1179,3221 1213,3320 1291,3131 1369,3320 1403,3221 1496,3267 "/>
   <path class="fil8" d="M1291 3078c-84,0 -153,-69 -153,-153 0,-84 69,-153 153,-153 84,0 153,69 153,153 0,84 -69,153 -153,153zm0 -320c-92,0 -167,75 -167,167 0,92 75,168 167,168 92,0 167,-76 167,-168 0,-92 -75,-167 -167,-167z"/>
   <path class="fil57" d="M3301 331c-5,7 -9,15 -13,23 5,-2 11,-4 17,-5 -1,-6 -3,-12 -4,-18z"/>
   <path class="fil57" d="M3516 491c-22,7 -44,14 -67,20 -23,6 -46,12 -68,17 -8,2 -17,4 -25,6 -6,1 -12,3 -18,4 7,5 15,9 23,13 10,5 21,8 31,10 23,5 47,5 70,-2 1,0 1,0 1,0 5,-1 10,-3 16,-5 1,-1 2,-1 3,-2 4,-1 8,-3 11,-5l0 0c11,-6 22,-13 31,-22 -3,-11 -5,-22 -8,-34z"/>
   <path class="fil57" d="M3493 547c-3,2 -7,4 -11,5 4,-1 8,-3 11,-5l0 0z"/>
   <path class="fil57" d="M3566 377c-6,-24 -18,-45 -33,-62 -8,-8 -16,-15 -25,-21 -7,-5 -15,-9 -23,-13 2,5 4,11 5,17 3,8 6,16 8,25 7,22 14,44 20,67 6,23 12,46 17,68 12,-4 23,-7 33,-11 5,-23 5,-47 -2,-70z"/>
   <path class="fil57" d="M3535 458c-5,-21 -10,-41 -16,-62 0,-2 -1,-4 -1,-6 -3,-12 -6,-23 -10,-35 -3,-11 -6,-22 -10,-32 -2,-9 -5,-17 -8,-25 -1,-6 -3,-12 -5,-17 -10,-5 -21,-8 -31,-10 4,10 7,21 11,33 3,8 5,16 8,24 0,1 1,2 1,3l0 0c4,14 8,27 12,40l0 0c2,9 5,17 7,26 6,23 12,46 17,69 -22,7 -45,13 -68,20 -23,6 -46,12 -69,17 -8,2 -17,4 -25,6 -12,3 -23,5 -34,7 7,9 15,16 24,22 6,-1 12,-3 18,-4 8,-2 17,-4 25,-6 22,-5 45,-11 68,-17 23,-6 45,-13 67,-20 3,12 5,23 8,34 8,-7 15,-15 21,-24 5,-7 10,-15 13,-23 5,-10 8,-21 10,-31 -10,4 -22,7 -33,11z"/>
   <path class="fil58" d="M3373 503c-8,2 -17,4 -25,6 2,9 5,17 8,25 8,-2 17,-4 25,-6 -3,-8 -5,-16 -8,-25zm199 181c-3,-53 -13,-116 -27,-183 -1,-6 -3,-12 -4,-18 -2,-8 -4,-17 -6,-25 -5,-22 -11,-45 -17,-68 -6,-23 -13,-45 -20,-67 -2,-9 -5,-17 -8,-25 -1,-6 -3,-12 -5,-17 -22,-65 -46,-124 -70,-171 -41,-82 -76,-117 -105,-109 -10,3 -17,9 -23,19 -13,23 -17,65 -13,128 3,41 9,87 18,137 3,15 6,30 9,46 6,-9 13,-17 21,-24 -11,-59 -19,-114 -22,-160 -6,-90 8,-119 16,-121 9,-2 35,15 76,95 21,42 42,93 62,150 4,10 7,21 11,33 3,8 5,16 8,24 7,23 14,45 20,69 6,23 12,46 18,69 2,8 3,17 5,25 3,12 5,23 8,34 11,59 19,114 22,160 5,69 -2,101 -10,114 -2,4 -4,6 -6,7 -9,2 -35,-15 -76,-96 -21,-41 -42,-92 -62,-149 -10,-2 -21,-5 -31,-10 22,65 46,124 70,171 41,81 76,117 106,109 29,-8 41,-57 35,-147z"/>
   <path class="fil58" d="M3838 302c-8,-29 -56,-41 -147,-35 -53,3 -116,13 -183,27 9,6 17,13 25,21 58,-11 113,-19 159,-22 90,-6 119,8 121,16 0,2 0,5 -3,9 -7,13 -31,36 -92,67 -42,21 -93,42 -150,62 -10,4 -21,7 -33,11 -8,3 -16,5 -24,8 -23,7 -46,13 -69,20 -23,6 -46,12 -69,17 -8,2 -17,4 -25,6 -12,3 -23,5 -34,7 -59,12 -114,20 -160,23 -90,6 -118,-8 -121,-16 -2,-9 15,-35 96,-76 41,-21 92,-42 149,-62 2,-11 5,-21 10,-31 -65,22 -124,46 -171,70 -57,29 -91,54 -104,77 -6,10 -7,19 -5,28 8,30 57,42 147,36 41,-3 87,-9 137,-18 15,-3 31,-6 46,-9 6,-1 12,-3 18,-4 8,-2 17,-4 25,-6 22,-5 45,-11 68,-17 23,-6 45,-13 67,-20 9,-2 17,-5 25,-8 6,-2 12,-3 17,-5 65,-22 124,-46 171,-70 82,-41 117,-76 109,-106zm-340 21c-2,-9 -5,-17 -8,-25 -8,2 -16,4 -25,6 3,8 5,16 8,24 8,-2 17,-4 25,-5z"/>
   <path class="fil57" d="M3493 397c-6,-24 -13,-46 -20,-69 -3,-8 -5,-16 -8,-24 -4,-12 -7,-23 -11,-33 -23,-5 -47,-5 -70,2 -24,6 -45,18 -62,34 -8,7 -15,15 -21,24 1,6 3,12 4,18 -6,1 -12,3 -17,5 -5,10 -8,20 -10,31 -5,23 -5,47 2,70 6,24 18,45 34,61 11,-2 22,-4 34,-7 8,-2 17,-4 25,-6 23,-5 46,-11 69,-17 23,-7 46,-13 69,-20 -6,-23 -12,-46 -18,-69z"/>
   <path class="fil58" d="M3710 524c-23,-23 -49,-48 -79,-73 -7,-6 -15,-12 -22,-19 -12,-10 -25,-20 -38,-30 -5,-4 -9,-7 -14,-11 -7,-5 -14,-10 -21,-15 -9,-7 -18,-14 -28,-21 -10,-7 -19,-13 -29,-20 -2,-1 -3,-2 -5,-4l0 0c-18,-12 -36,-24 -54,-35 -7,-5 -14,-9 -22,-14 -5,-3 -10,-6 -15,-9 -59,-36 -115,-65 -164,-86 -84,-35 -133,-40 -150,-15 -6,8 -7,18 -5,29 4,26 29,61 72,107 23,23 49,48 79,73 7,6 15,12 22,19 1,0 1,0 1,0 12,10 24,20 37,30 0,-5 -1,-9 -1,-14 0,-6 1,-12 2,-19 0,0 0,0 0,0 -4,-2 -7,-5 -10,-8 -8,-6 -16,-12 -24,-19 -33,-28 -62,-55 -87,-80 -62,-65 -70,-96 -65,-103 5,-7 36,-11 119,24 43,18 92,44 144,74 10,6 20,12 30,18 7,5 14,9 22,14 19,12 39,26 59,39 7,5 15,10 22,15l0 0c11,8 22,17 33,25 1,0 2,1 3,2 7,5 14,10 21,15 9,7 18,14 28,22 3,2 6,5 9,8 8,6 16,12 24,19 33,27 62,55 87,80 48,49 63,79 66,93 1,5 0,8 -1,10 -5,7 -36,11 -119,-24 -43,-18 -92,-44 -144,-74l0 0c-3,2 -7,4 -11,5 -1,1 -2,1 -3,2 -6,2 -11,4 -16,5 59,36 115,65 164,86 84,35 133,40 150,14 18,-25 -4,-69 -67,-135z"/>
   <path class="fil57" d="M1357 1985c1,6 3,12 6,17 1,-4 3,-7 4,-11 -3,-2 -7,-4 -10,-6z"/>
   <path class="fil57" d="M1555 1956c-7,-4 -14,-7 -21,-11 -6,14 -13,29 -19,43 -7,15 -14,29 -21,43 -3,5 -6,10 -9,15 -2,4 -3,8 -5,11 5,-1 11,-3 17,-6 6,-3 13,-7 19,-11 12,-10 22,-22 29,-37 0,-1 0,-1 1,-1 1,-3 2,-7 4,-10 0,-1 0,-2 1,-3 0,-2 1,-5 2,-8l0 0c1,-8 2,-17 2,-25z"/>
   <path class="fil57" d="M1553 1981c-1,3 -2,6 -2,8 0,-2 1,-5 2,-8l0 0z"/>
   <path class="fil57" d="M1497 1869c-15,-8 -31,-11 -46,-10 -8,0 -15,1 -22,3 -6,2 -12,4 -17,6 3,2 7,3 11,5 5,2 11,4 16,7 15,6 29,13 44,19 14,7 28,14 42,21 3,-7 6,-14 9,-22 -9,-12 -22,-22 -37,-29z"/>
   <path class="fil57" d="M1552 1934c-2,-6 -4,-11 -6,-17 -4,-6 -7,-13 -12,-19 -3,8 -6,15 -9,22 -12,-6 -25,-13 -39,-19 -1,-1 -2,-1 -3,-2 -8,-3 -15,-7 -23,-10 -7,-3 -14,-6 -21,-9 -5,-3 -11,-5 -16,-7 -4,-2 -8,-3 -11,-5 -7,3 -13,7 -19,12 7,3 14,6 22,9 5,2 11,4 16,6 1,1 1,1 2,1l0 0c9,4 17,8 26,12l0 0c5,2 11,5 16,7 15,7 29,14 43,22 -6,14 -12,29 -19,44 -7,14 -15,29 -22,43 -2,5 -5,10 -8,16 -4,7 -7,14 -11,20 7,0 15,-1 22,-3 2,-3 3,-7 5,-11 3,-5 6,-10 9,-15 7,-14 14,-28 21,-43 6,-14 13,-29 19,-43 7,4 14,7 21,11 0,-7 -1,-15 -3,-22z"/>
   <path class="fil58" d="M1658 2001c-29,-22 -65,-44 -106,-67 -4,-2 -8,-4 -11,-5 -5,-3 -10,-6 -16,-9 -14,-7 -28,-14 -42,-21 -15,-6 -29,-13 -44,-19 -5,-3 -11,-5 -16,-7 -4,-2 -8,-3 -11,-5 -44,-17 -84,-31 -119,-39 -60,-15 -94,-13 -103,6 -2,6 -3,13 0,20 6,17 26,38 60,64 22,16 49,33 79,51 9,5 18,10 28,15 -2,-7 -3,-14 -4,-22 -35,-19 -67,-39 -92,-58 -49,-37 -57,-57 -55,-62 3,-5 23,-11 83,3 30,7 66,19 104,34 7,3 14,6 22,9 5,2 11,4 16,6 15,7 29,13 44,20 15,7 29,14 43,22 6,2 11,5 16,8 7,4 14,7 21,11 35,20 67,40 92,59 38,28 51,46 55,55 1,3 1,5 0,7 -2,5 -23,11 -82,-4 -31,-7 -67,-19 -104,-33 -6,4 -13,8 -19,11 43,18 84,31 119,40 60,14 93,12 102,-7 9,-19 -11,-46 -60,-83zm-189 39c6,2 11,4 16,7 3,-6 6,-11 9,-16 -6,-2 -11,-5 -17,-7 -2,5 -5,10 -8,16z"/>
   <path class="fil58" d="M1578 1696c-19,-9 -46,11 -83,60 -21,29 -44,65 -66,106 7,-2 14,-3 22,-3 19,-35 39,-67 58,-92 37,-49 57,-58 62,-55 1,0 3,2 4,5 3,9 4,32 -7,77 -8,31 -19,67 -34,104 -3,8 -6,15 -9,22 -2,6 -4,11 -7,17 -6,14 -12,29 -19,44 -7,14 -15,29 -22,43 -2,5 -5,10 -8,16 -4,7 -7,14 -11,20 -20,36 -40,67 -59,93 -37,49 -56,57 -62,55 -5,-3 -11,-23 3,-83 8,-30 19,-66 34,-104 -4,-6 -8,-12 -11,-19 -18,43 -31,84 -40,119 -10,42 -12,71 -6,87 3,8 7,13 13,16 19,9 46,-11 83,-61 17,-22 34,-48 51,-78 5,-9 10,-18 16,-28 2,-3 3,-7 5,-10 3,-6 6,-11 9,-16 7,-14 14,-28 21,-43 6,-14 13,-29 19,-43 2,-6 5,-11 7,-16 1,-4 3,-8 4,-12 18,-43 32,-84 40,-119 15,-60 12,-93 -7,-102zm-139 184c-5,-3 -11,-5 -16,-7 -3,5 -6,10 -8,16 5,2 11,4 16,6 3,-5 5,-10 8,-15z"/>
   <path class="fil57" d="M1475 1915c-15,-7 -29,-13 -44,-20 -5,-2 -11,-4 -16,-6 -8,-3 -15,-6 -22,-9 -13,9 -23,22 -30,37 -7,15 -10,31 -10,46 1,8 2,15 4,22 3,2 7,4 10,6 -1,4 -3,7 -4,11 3,7 7,13 11,19 10,12 22,23 37,30 15,7 31,10 47,9 4,-6 7,-13 11,-20 3,-6 6,-11 8,-16 7,-14 15,-29 22,-43 7,-15 13,-30 19,-44 -14,-8 -28,-15 -43,-22z"/>
   <path class="fil58" d="M1736 1884c-6,-20 -38,-28 -100,-24 -22,1 -46,4 -72,8 -6,1 -13,2 -20,3 -10,2 -21,4 -32,6 -4,1 -8,2 -12,3 -5,1 -11,2 -17,4 -7,1 -15,3 -23,5 -7,2 -15,4 -23,6 -1,1 -3,1 -4,1l0 0c-14,4 -28,8 -42,12 -6,2 -11,4 -17,6 -4,1 -7,2 -11,3 -45,15 -84,31 -117,47 -55,28 -79,51 -74,71 2,6 6,11 13,15 15,9 44,12 87,10 22,-1 46,-4 72,-8 7,-1 13,-3 20,-4 0,0 0,0 1,0 10,-2 20,-4 31,-6 -2,-2 -5,-3 -7,-5 -3,-3 -7,-6 -9,-10 0,0 0,1 0,0 -3,1 -6,2 -9,2 -7,1 -13,3 -20,4 -29,5 -56,8 -80,9 -61,4 -80,-6 -82,-11 -1,-6 10,-24 65,-51 29,-14 63,-29 102,-42 7,-2 15,-5 22,-7 6,-2 11,-4 17,-5 15,-5 31,-10 46,-14 6,-1 12,-3 18,-4l0 0c9,-3 18,-5 27,-7 1,0 2,0 2,0 6,-2 12,-3 18,-4 7,-2 15,-4 23,-5 3,-1 5,-1 8,-2 7,-1 14,-2 20,-3 29,-5 56,-8 80,-10 47,-3 69,2 77,7 3,2 5,4 5,5 1,5 -10,23 -65,51 -28,14 -63,28 -101,41l0 0c-1,3 -2,6 -2,8 -1,1 -1,2 -1,3 -2,3 -3,7 -4,10 44,-15 84,-30 116,-47 55,-27 79,-50 74,-71z"/>
  </g>
 </g>
</svg>
